<?xml version="1.0" encoding="UTF-8" standalone="no"?>
<!-- Generator: Adobe Illustrator 28.1.0, SVG Export Plug-In . SVG Version: 6.00 Build 0)  -->

<svg
   version="1.1"
   id="Capa_1"
   x="0px"
   y="0px"
   viewBox="0 0 799.99986 325"
   xml:space="preserve"
   sodipodi:docname="identfy-logo-dark.svg"
   width="799.99988"
   height="325"
   inkscape:version="1.3.2 (091e20e, 2023-11-25, custom)"
   xmlns:inkscape="http://www.inkscape.org/namespaces/inkscape"
   xmlns:sodipodi="http://sodipodi.sourceforge.net/DTD/sodipodi-0.dtd"
   xmlns="http://www.w3.org/2000/svg"
   xmlns:svg="http://www.w3.org/2000/svg"><defs
   id="defs16" /><sodipodi:namedview
   id="namedview16"
   pagecolor="#ffffff"
   bordercolor="#000000"
   borderopacity="0.25"
   inkscape:showpageshadow="2"
   inkscape:pageopacity="0.0"
   inkscape:pagecheckerboard="0"
   inkscape:deskcolor="#d1d1d1"
   inkscape:zoom="1.1723105"
   inkscape:cx="550.62204"
   inkscape:cy="279.36285"
   inkscape:window-width="1920"
   inkscape:window-height="1009"
   inkscape:window-x="1912"
   inkscape:window-y="-8"
   inkscape:window-maximized="1"
   inkscape:current-layer="Capa_1" />
<style
   type="text/css"
   id="style1">
	.st0{fill:#EB5C5C;}
	.st1{fill:#FFFFFF;}
</style>
<path
   class="st0"
   d="m 51.576078,22.736762 c -3.9,-3.5 -9,-5.2 -15.3,-5.2 -6.3,0 -11.4,1.8 -15.3,5.5 -3.9,3.7 -5.9,8.2 -5.9,13.5 0,5.3 2,9.9 5.9,13.5 3.9,3.6 9,5.5 15.3,5.5 6.3,0 11.4,-1.9 15.3,-5.6 3.9,-3.7 5.9,-8.4 5.9,-14.1 0,-5.3 -2,-9.6 -5.9,-13.1 z"
   id="path1" />
<path
   class="st1"
   d="m 19.176078,105.93676 v 83.5 h 34.1 V 71.836762 c -18.8,0 -34.1,15.300001 -34.1,34.099998 z"
   id="path2" />
<path
   class="st1"
   d="m 161.87608,84.336763 c -8.5,-9.500001 -20.2,-14.200001 -35.2,-14.200001 -11.1,0 -21.1,2.5 -29.999998,7.400001 -9.000004,4.9 -16.000004,12 -21.100004,21.2 -5.1,9.199997 -7.6,19.799997 -7.6,31.899997 0,12.1 2.5,22.7 7.6,31.9 5.1,9.2 12.1,16.2 21.100004,21.2 8.999998,5 18.999998,7.4 29.999998,7.4 16,0 28.2,-5.1 36.7,-15.3 v 13.5 h 32.5 V 27.336762 h -34.1 z m -7.8,69.999997 c -5.7,5.9 -12.8,8.9 -21.4,8.9 -8.6,0 -16,-3 -21.6,-8.9 -5.6,-5.9 -8.5,-13.8 -8.5,-23.7 0,-9.9 2.8,-17.8 8.5,-23.7 5.7,-5.9 12.9,-8.899997 21.6,-8.899997 8.7,0 15.7,2.899997 21.4,8.899997 5.7,5.9 8.5,13.8 8.5,23.7 0,9.9 -2.8,17.8 -8.5,23.7 z"
   id="path3" />
<path
   class="st1"
   d="m 304.37608,77.536763 c -9.3,-4.900001 -19.7,-7.400001 -31.2,-7.400001 -11.5,0 -22.5,2.6 -32,7.800001 -9.5,5.2 -17,12.4 -22.5,21.6 -5.5,9.199997 -8.2,19.599997 -8.2,31.099997 0,11.5 2.8,22.1 8.3,31.2 5.5,9.2 13.4,16.4 23.6,21.5 10.2,5.2 21.9,7.8 35.2,7.8 21.3,0 37.4,-6.3 48.5,-19 l -18.1,-19.7 c -4.1,3.9 -8.5,6.8 -13.2,8.6 -4.7,1.8 -10.2,2.7 -16.3,2.7 -8.9,0 -16.3,-2.1 -22.3,-6.3 -6,-4.2 -9.8,-10 -11.4,-17.3 h 88.9 c 0.4,-5.7 0.7,-8.7 0.7,-9.2 0,-12.2 -2.7,-23 -8,-32.199997 -5.3,-9.1 -12.7,-16.2 -22,-21.2 z m -60.1,42.799997 c 1.2,-7.6 4.4,-13.5 9.6,-17.9 5.2,-4.399997 11.7,-6.599997 19.4,-6.599997 7.7,0 14,2.2 19.2,6.699997 5.2,4.5 8.5,10.4 9.6,17.8 z"
   id="path4" />
<path
   class="st1"
   d="m 419.87608,70.136762 c -8,0 -15.4,1.4 -22.1,4 -6.7,2.700001 -12.3,6.500001 -16.8,11.500001 V 71.836762 h -32.5 V 189.33676 h 34.1 v -58.1 c 0,-10.5 2.5,-18.4 7.7,-23.7 5.1,-5.3 11.9,-7.999997 20.5,-7.999997 7.7,0 13.6,2.299997 17.7,6.899997 4.1,4.6 6.1,11.5 6.1,20.9 v 62 h 34.1 v -67.2 c 0,-17.2 -4.5,-30.099997 -13.4,-38.899997 -9.1,-8.700001 -20.8,-13.100001 -35.4,-13.100001 z"
   id="path5" />
<path
   class="st1"
   d="m 542.57608,164.03676 c -4.7,0 -8.3,-1.4 -10.8,-4 -2.5,-2.7 -3.8,-6.5 -3.8,-11.5 v -47.8 h 29.3 V 74.536762 h -29.3 v -28.6 h -34.1 v 28.6 h -18.1 v 26.199998 h 18.1 v 48.3 c 0,13.8 3.8,24.3 11.5,31.5 7.7,7.1 18.5,10.7 32.4,10.7 5.4,0 10.5,-0.6 15.4,-1.9 4.9,-1.3 9,-3.1 12.3,-5.6 l -9.2,-24 c -3.7,2.9 -8.3,4.3 -13.7,4.3 z"
   id="path6" />
<path
   class="st1"
   d="m 744.57608,74.536762 -32.1,77.099998 -31.9,-77.099998 h -63.1 v -5 c 0,-11.4 5.2,-17 15.5,-17 5.2,0 9.8,1.4 13.8,4.1 l 9,-24.7 c -3.1,-2 -6.9,-3.6 -11.5,-4.7 -4.6,-1.1 -9.4,-1.6 -14.5,-1.6 -14.4,0 -25.6,3.9 -33.5,11.8 -7.9,7.9 -11.9,18.5 -11.9,31.9 v 5.2 h -18.1 v 26.199998 h 18 v 88.7 h 34.1 v -88.7 h 38.4 l 38.5,89.6 -0.4,1.1 c -2.3,5.2 -5,9 -7.9,11.2 -2.9,2.2 -6.7,3.4 -11.4,3.4 -3.3,0 -6.7,-0.6 -10.2,-2 -3.4,-1.3 -6.4,-3.1 -9.1,-5.5 l -12.5,24.2 c 3.8,3.4 8.7,6 14.6,7.9 6,1.9 12,2.8 18.1,2.8 11.2,0 20.8,-2.8 28.7,-8.3 7.9,-5.5 14.6,-15.1 20,-28.6 l 52,-122.099998 z"
   id="path7" />
<path
   class="st1"
   d="m 59.676078,237.43676 c 4,2.2 7.1,5.4 9.4,9.5 2.3,4.1 3.4,8.7 3.4,13.9 0,5.2 -1.1,9.8 -3.4,13.9 -2.3,4.1 -5.4,7.2 -9.4,9.5 -4,2.3 -8.5,3.4 -13.4,3.4 -4.4,0 -8.4,-0.9 -11.9,-2.8 -3.5,-1.9 -6.3,-4.6 -8.4,-8.1 v 10.4 h -6.8 v -74.2 h 7.1 v 31.6 c 2.2,-3.4 5,-6 8.4,-7.8 3.4,-1.8 7.3,-2.6 11.6,-2.6 5,0 9.4,1.1 13.4,3.3 z m -3.9,41.3 c 3,-1.7 5.4,-4.1 7,-7.2 1.7,-3.1 2.5,-6.7 2.5,-10.7 0,-4 -0.9,-7.6 -2.5,-10.7 -1.7,-3.1 -4,-5.5 -7,-7.2 -3,-1.7 -6.3,-2.5 -10,-2.5 -3.7,0 -7.1,0.9 -10.1,2.5 -3,1.7 -5.3,4.1 -7,7.2 -1.7,3.1 -2.6,6.7 -2.6,10.7 0,4 0.9,7.6 2.6,10.7 1.7,3.1 4,5.5 7,7.2 3,1.7 6.3,2.5 10.1,2.5 3.8,0 7,-0.8 10,-2.5 z"
   id="path8" />
<path
   class="st1"
   d="m 129.67608,234.53676 -26.3,58.9 c -2.1,4.9 -4.599998,8.4 -7.399998,10.5 -2.800004,2.1 -6.200004,3.1 -10.100004,3.1 -2.5,0 -4.9,-0.4 -7.1,-1.2 -2.2,-0.8 -4.1,-2 -5.7,-3.6 l 3.3,-5.3 c 2.7,2.7 5.9,4 9.6,4 2.4,0 4.5,-0.7 6.1,-2 1.7,-1.3 3.300004,-3.6 4.800004,-6.8 l 2.3,-5.1 -23.500004,-52.5 h 7.4 l 19.800002,44.7 19.8,-44.7 z"
   id="path9" />
<path
   class="st1"
   d="m 166.87608,217.13676 h 7.4 v 70 h -7.4 z"
   id="path10" />
<path
   class="st1"
   d="m 232.67608,281.23676 v 5.9 h -42.8 v -4.7 l 33.1,-41.9 h -32.5 v -6 h 41.6 v 4.7 l -33.1,42 z"
   id="path11" />
<path
   class="st1"
   d="m 291.57608,263.03676 h -44 c 0.4,5.5 2.5,9.9 6.3,13.2 3.8,3.3 8.6,5 14.4,5 3.3,0 6.3,-0.6 9,-1.8 2.7,-1.2 5.1,-2.9 7.1,-5.1 l 4,4.6 c -2.3,2.8 -5.2,4.9 -8.8,6.4 -3.6,1.5 -7.4,2.2 -11.5,2.2 -5.4,0 -10.2,-1.1 -14.4,-3.5 -4.2,-2.3 -7.4,-5.5 -9.8,-9.5 -2.3,-4.1 -3.5,-8.7 -3.5,-13.8 0,-5.1 1.1,-9.7 3.4,-13.8 2.2,-4.1 5.3,-7.2 9.2,-9.5 3.9,-2.3 8.3,-3.4 13.1,-3.4 4.8,0 9.2,1.1 13.1,3.4 3.9,2.3 6.9,5.4 9.1,9.5 2.2,4.1 3.3,8.6 3.3,13.9 z m -38.1,-18 c -3.4,3.2 -5.4,7.5 -5.9,12.6 h 37.3 c -0.5,-5.2 -2.4,-9.4 -5.9,-12.6 -3.4,-3.2 -7.7,-4.9 -12.9,-4.9 -5.2,0 -9.2,1.7 -12.6,4.9 z"
   id="path12" />
<path
   class="st1"
   d="m 320.47608,236.83676 c 3.3,-1.8 7.4,-2.7 12.2,-2.7 v 6.9 l -1.7,-0.1 c -5.5,0 -9.9,1.7 -13,5.1 -3.1,3.4 -4.7,8.2 -4.7,14.3 v 26.8 h -7.1 v -52.6 h 6.8 v 10.3 c 1.7,-3.6 4.2,-6.2 7.5,-8 z"
   id="path13" />
<path
   class="st1"
   d="m 375.47608,283.93676 c -1.3,1.2 -3,2.1 -5,2.8 -2,0.6 -4,1 -6.2,1 -4.9,0 -8.7,-1.3 -11.4,-4 -2.7,-2.7 -4,-6.4 -4,-11.3 v -31.8 h -9.4 v -6 h 9.4 v -11.5 h 7.1 v 11.5 h 16 v 6 h -16 v 31.4 c 0,3.1 0.8,5.5 2.3,7.1 1.6,1.6 3.8,2.5 6.8,2.5 1.5,0 2.9,-0.2 4.2,-0.7 1.3,-0.5 2.5,-1.1 3.5,-2 z"
   id="path14" />
<path
   class="st1"
   d="m 388.27608,221.53676 c -1,-1 -1.5,-2.2 -1.5,-3.6 0,-1.4 0.5,-2.5 1.5,-3.5 1,-1 2.2,-1.5 3.7,-1.5 1.5,0 2.7,0.5 3.7,1.5 1,1 1.5,2.1 1.5,3.5 0,1.5 -0.5,2.7 -1.5,3.7 -1,1 -2.2,1.5 -3.7,1.5 -1.5,0 -2.7,-0.6 -3.7,-1.6 z m 0.1,13 h 7.1 v 52.6 h -7.1 z"
   id="path15" />
<path
   class="st1"
   d="m 417.17608,285.73676 c -3.9,-1.2 -7,-2.8 -9.2,-4.6 l 3.2,-5.6 c 2.2,1.7 5,3.1 8.3,4.2 3.3,1.1 6.8,1.6 10.4,1.6 4.8,0 8.3,-0.8 10.7,-2.2 2.3,-1.5 3.5,-3.6 3.5,-6.4 0,-1.9 -0.6,-3.5 -1.9,-4.5 -1.3,-1.1 -2.9,-1.9 -4.8,-2.5 -1.9,-0.6 -4.5,-1.1 -7.7,-1.6 -4.3,-0.8 -7.7,-1.6 -10.3,-2.5 -2.6,-0.8 -4.8,-2.2 -6.7,-4.2 -1.9,-2 -2.8,-4.8 -2.8,-8.3 0,-4.4 1.8,-8 5.5,-10.8 3.7,-2.8 8.8,-4.2 15.3,-4.2 3.4,0 6.8,0.5 10.2,1.4 3.4,0.9 6.2,2.1 8.4,3.5 l -3.1,5.7 c -4.3,-3 -9.5,-4.5 -15.5,-4.5 -4.5,0 -8,0.8 -10.2,2.4 -2.2,1.6 -3.5,3.7 -3.5,6.3 0,2 0.7,3.6 2,4.8 1.3,1.2 2.9,2.1 4.8,2.6 1.9,0.5 4.6,1.1 8,1.8 4.2,0.8 7.6,1.6 10.1,2.4 2.5,0.8 4.7,2.2 6.5,4.1 1.8,1.9 2.7,4.6 2.7,8 0,4.6 -1.9,8.2 -5.8,11 -3.9,2.8 -9.2,4 -16,4 -4.1,0 -8.2,-0.7 -12.1,-1.9 z"
   id="path16" />
</svg>
